<?xml version="1.0" standalone="no"?>
<!DOCTYPE svg PUBLIC "-//W3C//DTD SVG 20010904//EN"
 "http://www.w3.org/TR/2001/REC-SVG-20010904/DTD/svg10.dtd">
<svg version="1.0" xmlns="http://www.w3.org/2000/svg"
 width="512.000000pt" height="512.000000pt" viewBox="0 0 512.000000 512.000000"
 preserveAspectRatio="xMidYMid meet">
<metadata>
Created by potrace 1.11, written by Peter Selinger 2001-2013
</metadata>
<g transform="translate(0.000000,512.000000) scale(0.100000,-0.100000)"
fill="#000000" stroke="none">
<path d="M2385 5044 c-343 -33 -636 -113 -910 -248 -266 -131 -462 -272 -670
-480 -215 -216 -348 -401 -480 -671 -115 -234 -191 -477 -232 -745 -24 -161
-24 -529 0 -690 85 -554 323 -1027 711 -1416 887 -886 2255 -981 3266 -226
149 112 372 335 486 487 252 337 407 705 476 1128 31 190 31 554 0 744 -70
428 -231 804 -491 1148 -155 205 -422 447 -661 599 -263 167 -620 297 -967
351 -94 15 -444 27 -528 19z m390 -204 c823 -76 1547 -595 1886 -1352 555
-1242 -95 -2696 -1393 -3117 -1111 -359 -2320 181 -2799 1251 -479 1072 -67
2333 956 2923 403 233 883 338 1350 295z"/>
<path d="M2315 4625 c-971 -118 -1724 -888 -1824 -1864 -70 -681 218 -1373
754 -1811 422 -345 979 -514 1516 -460 990 100 1767 877 1868 1869 88 853
-379 1688 -1154 2067 -361 176 -769 246 -1160 199z m-825 -795 c1154 -103
2101 -934 2334 -2048 26 -125 41 -244 51 -409 l7 -103 -256 0 -256 0 0 69 c0
165 -45 405 -112 601 -206 600 -709 1094 -1322 1295 -194 64 -340 91 -598 111
l-78 6 0 244 0 244 58 0 c31 0 109 -5 172 -10z m76 -890 c301 -51 616 -203
852 -412 267 -236 460 -568 532 -910 22 -105 44 -323 35 -338 -4 -6 -101 -10
-256 -10 l-249 0 0 54 c0 74 -26 216 -56 311 -151 466 -581 801 -1068 833
l-101 7 -3 235 c-1 129 0 241 3 248 7 18 145 9 311 -18z m129 -995 c250 -64
343 -364 173 -551 -74 -80 -131 -107 -243 -112 -74 -3 -100 0 -146 17 -107 41
-184 129 -214 249 -14 52 -14 72 -4 120 15 77 49 139 101 188 95 91 207 121
333 89z"/>
</g>
</svg>
